<?xml version="1.0" encoding="UTF-8"?>
<svg version="1.1" viewBox="0 0 1600 1600" width="1280" height="1280" xmlns="http://www.w3.org/2000/svg">
<path transform="translate(67,67)" d="m0 0c140-0.0201 140-0.0201 178-0.0251 2.25-2.88e-4 4.5-5.76e-4 6.75-8.65e-4 52.6-0.00674 105-0.0121 158-0.0164 1.71-1.39e-4 3.41-2.79e-4 5.12-4.18e-4 35.8-0.00292 71.6-0.00564 107-0.00812 18-0.00125 36-0.00253 54-0.00385 2.71-1.99e-4 5.43-3.97e-4 8.14-5.95e-4 41.8-0.00306 83.6-0.00697 125-0.0133 0.899-1.37e-4 1.8-2.74e-4 2.72-4.15e-4 14.5-0.00221 29-0.0045 43.5-0.00679 41.7-0.0066 83.5-0.0127 125-0.0153 0.858-5.35e-5 1.72-1.07e-4 2.6-1.62e-4 18.8-0.00117 37.6-0.00206 56.5-0.0027 7.57-2.62e-4 15.1-5.62e-4 22.7-8.76e-4 0.829-3.34e-5 1.66-6.69e-5 2.51-1.01e-4 26.7-0.0011 53.5-0.00537 80.2-0.0113 26.9-0.00596 53.8-0.00882 80.8-0.00734 3.71 2.03e-4 7.43 3.7e-4 11.1 5.16e-4 0.728 2.99e-5 1.46 5.98e-5 2.21 9.05e-5 11.6 3.82e-4 23.1-0.00261 34.7-0.00699 11.3-0.00423 22.7-0.00486 34-0.00182 6.08 0.00152 12.2 0.0014 18.2-0.00305 5.52-0.00401 11-0.00352 16.6 7.43e-4 2 7.21e-4 3.99-2.77e-4 5.99-0.0031 2.69-0.00356 5.37-0.00109 8.06 0.00304 1.18-0.00376 1.18-0.00376 2.39-0.0076 5.31 0.0176 5.31 0.0176 6.42 1.13 0.0974 1.76 0.124 3.53 0.123 5.29 0.00199 1.15 0.00398 2.31 0.00603 3.5-0.00291 1.28-0.00583 2.57-0.00883 3.89 4.36e-4 1.37 0.00131 2.73 0.00259 4.1 0.00225 3.77-0.00178 7.54-0.00678 11.3-0.0043 4.06-0.00286 8.12-0.0021 12.2 5.25e-4 7.04-0.00262 14.1-0.00824 21.1-0.00811 10.2-0.0107 20.4-0.012 30.5-0.00219 16.5-0.00885 33-0.0183 49.5-0.00917 16-0.0163 32.1-0.0205 48.1-2.63e-4 0.988-5.25e-4 1.98-7.96e-4 3-0.0013 4.96-0.00257 9.92-0.00381 14.9-0.0104 41.2-0.028 82.3-0.0503 123-16.3 0.154-32.6 0.302-48.9 0.443-7.57 0.0655-15.1 0.133-22.7 0.205-6.6 0.0629-13.2 0.122-19.8 0.177-3.49 0.0291-6.99 0.0601-10.5 0.0955-3.9 0.0395-7.81 0.0707-11.7 0.101-1.73 0.0194-1.73 0.0194-3.49 0.0392-5.41 0.0356-10.5-0.0876-15.9-1.06-0.0234-23.7-0.041-47.5-0.0518-71.2-0.00515-11-0.0122-22-0.0236-33.1-0.01-9.61-0.0164-19.2-0.0186-28.8-0.0013-5.08-0.00433-10.2-0.0116-15.3-0.00684-4.8-0.00887-9.59-0.00738-14.4-2.73e-4 -1.75-0.00223-3.5-0.0061-5.25-0.00507-2.41-0.00375-4.82-0.00105-7.24-0.00291-0.672-0.00583-1.34-0.00883-2.04 0.0217-7.3 0.64-14.4 1.13-21.8h-401v1200h194c1.98 0.33 3.96 0.66 6 1v131c-9 1.13-9 1.13-12.4 1.13-1.15 0.00376-1.15 0.00376-2.33 0.00759-0.819-0.00234-1.64-0.00468-2.48-0.00709-0.894 0.00145-1.79 0.00291-2.71 0.0044-2.99 0.00365-5.98 1.8e-4 -8.98-0.00326-2.17 0.00115-4.34 0.00274-6.5 0.00473-5.95 0.00418-11.9 0.00211-17.9-9.86e-4 -6.42-0.00226-12.8 0.00123-19.3 0.00398-11.9 0.00419-23.7 0.00383-35.6 0.00109-10.9-0.00251-21.9-0.00317-32.8-0.00198-0.726 7.64e-5 -1.45 1.53e-4 -2.2 2.31e-4 -2.95 3.11e-4 -5.89 6.3e-4 -8.84 9.6e-4 -27.6 0.00306-55.3 2.86e-4 -82.9-0.0051-24.6-0.00475-49.1-0.00432-73.7 4.61e-4 -27.6 0.00535-55.2 0.00748-82.8 0.00439-2.94-3.21e-4 -5.88-6.34e-4 -8.82-9.43e-4 -1.09-1.19e-4 -1.09-1.19e-4 -2.19-2.4e-4 -10.9-0.00114-21.9 1.96e-4 -32.8 0.00272-12.4 0.00285-24.9 0.00206-37.3-0.00328-6.35-0.00264-12.7-0.00364-19-3.51e-4 -5.8 0.00296-11.6 0.00137-17.4-0.00398-2.11-0.00113-4.22-5.31e-4 -6.33 0.00188-2.85 3e-3 -5.69-3.78e-5 -8.54-0.00472-0.836 0.00234-1.67 0.00468-2.53 0.00709-5.64-0.0188-5.64-0.0188-6.75-1.13-0.0984-1.69-0.126-3.39-0.127-5.09-0.00282-1.1-0.00564-2.2-0.00854-3.34 0.00304-1.83 0.00304-1.83 0.00613-3.7-0.00263-1.91-0.00263-1.91-0.00531-3.87-0.00457-3.51-0.00278-7.02 3.79e-4 -10.5 0.00252-3.67 1.86e-4 -7.33-0.00139-11-0.00182-6.16 5.84e-4 -12.3 0.00534-18.5 0.00544-7.13 0.00368-14.3-0.00183-21.4-0.00453-6.11-0.00518-12.2-0.00256-18.3 0.00156-3.65 0.00176-7.31-0.00154-11-0.00341-4.07 0.00131-8.14 0.0069-12.2-0.00202-1.22-0.00405-2.44-0.00613-3.7 0.00282-1.1 0.00564-2.2 0.00854-3.34 3.77e-4 -0.964 7.54e-4 -1.93 0.00114-2.92 0.126-2.17 0.126-2.17 1.13-3.17h199v-1200h-400v199c-16.4 0.165-32.9 0.33-49.8 0.5-5.13 0.0522-10.3 0.104-15.6 0.158-38.6 0.387-38.6 0.387-54.3 0.436-1.59 0.00973-1.59 0.00973-3.21 0.0197-1.4 9.06e-4 -1.4 9.06e-4 -2.83 0.00183-0.777 0.00205-1.55 0.00411-2.35 0.00623-1.98-0.121-1.98-0.121-4.98-1.12v-332z" fill="#000002"/>
<path transform="translate(867,534)" d="m0 0c77.4-0.0201 77.4-0.0201 101-0.0257 1.28-2.96e-4 1.28-2.96e-4 2.59-5.98e-4 28.7-0.00662 57.5-0.0119 86.2-0.0161 0.937-1.38e-4 1.87-2.76e-4 2.84-4.18e-4 20.4-0.00299 40.7-0.00576 61.1-0.0083 9.99-0.00125 20-0.00254 30-0.00387 0.994-1.31e-4 1.99-2.62e-4 3.01-3.96e-4 32.2-0.00427 64.5-0.0118 96.7-0.021 33.1-0.00942 66.2-0.0156 99.4-0.0176 4.67-2.88e-4 9.35-6.14e-4 14-9.62e-4 0.92-6.74e-5 1.84-1.35e-4 2.79-2.04e-4 14.8-0.00118 29.7-0.00583 44.5-0.0118 14.9-0.00587 29.8-0.00814 44.7-0.00667 8.86 7.64e-4 17.7-0.00129 26.6-0.0073 5.91-0.00373 11.8-0.00388 17.7-0.00103 3.37 0.00152 6.75 8.61e-4 10.1-0.00305 3.62-0.00396 7.24-0.00188 10.9 0.00184 1.06-0.00263 2.13-0.00525 3.23-0.00796 1.43 0.00337 1.43 0.00337 2.9 0.00681 0.83-1.56e-4 1.66-3.12e-4 2.51-4.73e-4 1.87 0.125 1.87 0.125 2.87 1.12 0.1 2.96 0.134 5.89 0.127 8.85 0.00156 0.939 0.00312 1.88 0.00473 2.85 0.00401 3.17 8.19e-4 6.35-0.00232 9.52 0.00135 2.26 0.00313 4.53 0.00531 6.79 0.00458 6.17 0.00278 12.3-3.79e-4 18.5-0.00252 6.44-1.86e-4 12.9 0.00139 19.3 0.00194 11.5-0.00118 23-0.00626 34.5-0.00447 10.4-0.00369 20.9 9.19e-4 31.3 0.00535 12.1 0.00735 24.2 0.00439 36.4-0.00156 6.42-0.00176 12.8 0.00154 19.3 0.00288 6.03 9.05e-4 12.1-0.00489 18.1-0.00133 2.22-9.32e-4 4.44 0.00126 6.67 0.00271 3.02-6.67e-4 6.04-0.00568 9.06 0.00223 0.891 0.00446 1.78 0.00676 2.7-0.0196 6.03-0.0196 6.03-1.13 7.14-1.71 0.0962-3.42 0.122-5.13 0.12-1.11 0.00137-2.22 0.00275-3.37 0.00417-1.23-0.0036-2.46-0.00719-3.73-0.0109-1.29 1.46e-4 -2.58 2.92e-4 -3.9 4.43e-4 -3.54 2.88e-4 -7.08-0.00561-10.6-0.0126-3.7-0.00623-7.39-0.00684-11.1-0.00803-7.01-0.00311-14-0.0113-21-0.0213-9.46-0.0132-18.9-0.0187-28.4-0.0245-14.9-0.00941-29.8-0.0293-44.7-0.0475v-100c-65.8 0.495-65.8 0.495-133 1-0.33 176-0.66 352-1 533h99c1.68 1.68 1.13 3.78 1.13 6.09 0.00282 1.1 0.00564 2.2 0.00854 3.34-0.00304 1.83-0.00304 1.83-0.00613 3.7 0.00263 1.91 0.00263 1.91 0.00531 3.87 0.00457 3.51 0.00278 7.02-3.79e-4 10.5-0.00252 3.67-1.86e-4 7.33 0.00139 11 0.00182 6.16-5.84e-4 12.3-0.00534 18.5-0.00544 7.13-0.00368 14.3 0.00183 21.4 0.00453 6.11 0.00518 12.2 0.00256 18.3-0.00156 3.65-0.00176 7.31 0.00154 11 0.00341 4.07-0.00131 8.14-0.0069 12.2 0.00202 1.22 0.00405 2.44 0.00613 3.7-0.00423 1.65-0.00423 1.65-0.00854 3.34-3.77e-4 0.964-7.54e-4 1.93-0.00114 2.92-0.126 2.17-0.126 2.17-1.13 3.17-1.76 0.0974-3.53 0.124-5.29 0.123-1.73 0.00299-1.73 0.00299-3.5 0.00603-1.28-0.00291-2.57-0.00583-3.89-0.00883-1.37 4.36e-4 -2.73 0.00131-4.1 0.00259-3.77 0.00225-7.54-0.00178-11.3-0.00678-4.06-0.0043-8.12-0.00286-12.2-0.0021-7.04 5.25e-4 -14.1-0.00262-21.1-0.00824-10.2-0.00811-20.4-0.0107-30.5-0.012-16.5-0.00219-33-0.00885-49.5-0.0183-16-0.00917-32.1-0.0163-48.1-0.0205-0.988-2.63e-4 -1.98-5.25e-4 -3-7.96e-4 -4.96-0.0013-9.92-0.00257-14.9-0.00381-41.2-0.0104-82.3-0.028-123-0.0503-0.693-3.32-1.13-6.35-1.13-9.75-0.00282-0.926-0.00564-1.85-0.00854-2.81 0.00304-1.51 0.00304-1.51 0.00613-3.04-0.00263-1.6-0.00263-1.6-0.00531-3.23-0.0044-3.53-0.00148-7.06 0.00189-10.6-6.74e-4 -2.47-0.00164-4.93-0.0029-7.4-0.00148-5.18 6.7e-4 -10.4 0.00534-15.5 0.00566-6.6 0.00244-13.2-0.00357-19.8-0.00364-5.1-0.00245-10.2 1.28e-4 -15.3 6.62e-4 -2.43-1.34e-4 -4.86-0.00248-7.29-0.00258-3.42 0.00138-6.84 0.0069-10.3-0.00202-0.982-0.00405-1.96-0.00613-2.98 0.0248-8.41 0.607-16.6 1.14-25h99v-533c-43.9-0.33-87.8-0.66-133-1 0.0396 32.5 0.0396 32.5 0.0901 65.1 0.00452 6.28 0.00452 6.28 0.00536 9.22 0.00154 2.06 0.00507 4.12 0.0101 6.18 0.00727 3.11 0.00833 6.22 0.00795 9.33 0.0036 0.924 0.0072 1.85 0.0109 2.8-0.0104 6.29-0.0104 6.29-1.12 7.4-1.71 0.0962-3.42 0.122-5.13 0.12-1.11 0.00138-2.22 0.00275-3.36 0.00417-1.23-0.0036-2.47-0.0072-3.74-0.0109-1.31 1.21e-4 -2.62 2.41e-4 -3.97 3.65e-4 -3.55 2.26e-4 -7.1-0.00558-10.7-0.0126-3.33-0.00568-6.66-0.00596-9.98-0.00668-9.74-0.00525-19.5-0.0192-29.2-0.0321-21.8-0.0206-43.5-0.0412-65.9-0.0625v-232z" fill="#000002"/>
</svg>
